<?xml version="1.0" encoding="utf-8"?>
<!-- Generator: Adobe Illustrator 20.1.0, SVG Export Plug-In . SVG Version: 6.00 Build 0)  -->
<svg version="1.1" id="Layer_1" xmlns="http://www.w3.org/2000/svg" xmlns:xlink="http://www.w3.org/1999/xlink" x="0px" y="0px"
	 viewBox="0 0 1000 600" style="enable-background:new 0 0 1000 600;" xml:space="preserve">
<style type="text/css">
	.st0{fill:#B5BBC4;}
	.st1{fill:none;}
	.st2{fill:#2A2A2A;}
	.st3{font-family:'ArialMT';}
	.st4{font-size:30px;}
	.st5{font-size:21px;}
	.st6{font-family:'Arial-BoldMT';}
	.st7{font-size:18px;}
</style>
<rect x="688.7" y="113" class="st0" width="200.6" height="38"/>
<rect x="395.3" y="113" class="st0" width="203" height="38"/>
<rect x="100.9" y="113" class="st0" width="201.5" height="38"/>
<rect x="443.3" y="-245.2" class="st1" width="0" height="5.2"/>
<rect x="97.1" y="71" class="st1" width="794.4" height="37"/>
<text transform="matrix(1 0 0 1 160.0481 92.4799)" class="st2 st3 st4">SEXUAL ASSAULT RESOURCES AT A GLANCE</text>
<rect x="140.5" y="121" class="st1" width="123.8" height="22"/>
<text transform="matrix(1 0 0 1 145.1602 136.0361)" class="st2 st3 st5">Philadelphia</text>
<rect x="452.8" y="121" class="st1" width="83" height="22"/>
<text transform="matrix(1 0 0 1 455.787 136.0361)" class="st2 st3 st5">National</text>
<rect x="701.4" y="121" class="st1" width="178" height="22"/>
<text transform="matrix(1 0 0 1 747.767 136.0361)" class="st2 st3 st5">Specialty</text>
<rect x="100.9" y="164" class="st0" width="203" height="147.4"/>
<rect x="105.1" y="174.1" class="st1" width="200.8" height="127.2"/>
<text transform="matrix(1 0 0 1 105.1163 189.1361)"><tspan x="0" y="0" class="st2 st6 st5">WOAR</tspan><tspan x="0" y="25.2" class="st2 st3 st5">215-985-3333</tspan><tspan x="0" y="46.8" class="st2 st3 st7">One Penn Center</tspan><tspan x="0" y="68.4" class="st2 st3 st7">1617 John F Kennedy </tspan><tspan x="0" y="90" class="st2 st3 st7">Blvd., Suite 1100</tspan><tspan x="0" y="111.6" class="st2 st3 st7">Philadelphia, PA 19103</tspan></text>
<rect x="100.9" y="324.4" class="st0" width="203" height="111.2"/>
<rect x="105.1" y="334.5" class="st1" width="200.8" height="127.2"/>
<text transform="matrix(1 0 0 1 105.1163 349.5361)"><tspan x="0" y="0" class="st2 st6 st5">Philadelphia </tspan><tspan x="0" y="25.2" class="st2 st6 st5">Domestic Abuse </tspan><tspan x="0" y="50.4" class="st2 st6 st5">Hotline</tspan><tspan x="0" y="72" class="st2 st3 st7">1-866-723-3014</tspan></text>
<rect x="100.9" y="447.6" class="st0" width="203" height="111.2"/>
<rect x="105.1" y="458.7" class="st1" width="200.8" height="98.5"/>
<text transform="matrix(1 0 0 1 105.1163 473.7361)"><tspan x="0" y="0" class="st2 st6 st5">Pennsylvania </tspan><tspan x="0" y="25.2" class="st2 st6 st5">Coalition Against </tspan><tspan x="0" y="50.4" class="st2 st6 st5">Rape</tspan><tspan x="0" y="72" class="st2 st3 st7">pcar.org</tspan></text>
<rect x="395.3" y="164" class="st0" width="203" height="109"/>
<rect x="393.9" y="283" class="st0" width="203" height="141"/>
<rect x="395.3" y="435.6" class="st0" width="203" height="121.3"/>
<rect x="400.1" y="172.5" class="st1" width="200.8" height="127.2"/>
<text transform="matrix(1 0 0 1 400.0552 187.5361)"><tspan x="0" y="0" class="st2 st6 st5">National Sexual </tspan><tspan x="0" y="25.2" class="st2 st6 st5">Violence Resource </tspan><tspan x="0" y="50.4" class="st2 st6 st5">Center</tspan><tspan x="0" y="72" class="st2 st3 st7">nsvrc.org</tspan></text>
<rect x="397.6" y="308.4" class="st1" width="200.8" height="127.2"/>
<text transform="matrix(1 0 0 1 397.5552 323.4361)"><tspan x="0" y="0" class="st2 st6 st5">Rape, Abuse &amp; </tspan><tspan x="0" y="25.2" class="st2 st6 st5">Incest National </tspan><tspan x="0" y="50.4" class="st2 st6 st5">Network</tspan><tspan x="0" y="72" class="st2 st3 st7">rainn.org</tspan></text>
<rect x="400.1" y="444.4" class="st1" width="200.8" height="127.2"/>
<text transform="matrix(1 0 0 1 400.0552 459.3861)"><tspan x="0" y="0" class="st2 st6 st5">National Center for </tspan><tspan x="0" y="25.2" class="st2 st6 st5">Victims of Crime</tspan><tspan x="0" y="46.8" class="st2 st3 st7">nsvrc.org</tspan></text>
<rect x="688.7" y="164.6" class="st0" width="203" height="109"/>
<rect x="691.2" y="173.3" class="st1" width="200.8" height="127.2"/>
<text transform="matrix(1 0 0 1 691.2441 188.2861)"><tspan x="0" y="0" class="st2 st6 st5">LGBTQ Community </tspan><tspan x="0" y="25.2" class="st2 st6 st5">resources</tspan><tspan x="0" y="46.8" class="st2 st3 st7">nclrights.org</tspan></text>
<rect x="688.7" y="282.8" class="st0" width="203" height="141"/>
<rect x="691.2" y="297" class="st1" width="200.8" height="127.2"/>
<text transform="matrix(1 0 0 1 691.2441 312.0361)"><tspan x="0" y="0" class="st2 st6 st5">Information on male </tspan><tspan x="0" y="25.2" class="st2 st6 st5">sexual abuse</tspan><tspan x="0" y="46.8" class="st2 st3 st7">malesurvivor.org</tspan></text>
<rect x="688.7" y="435.6" class="st0" width="203" height="121.3"/>
<rect x="691.2" y="444.4" class="st1" width="200.8" height="127.2"/>
<text transform="matrix(1 0 0 1 691.2441 459.3861)"><tspan x="0" y="0" class="st2 st6 st5">Hotline for people </tspan><tspan x="0" y="25.2" class="st2 st6 st5">in the military</tspan><tspan x="0" y="46.8" class="st2 st3 st7">1-877-995-5247</tspan></text>
</svg>
