<?xml version="1.0" standalone="no"?>
<!DOCTYPE svg PUBLIC "-//W3C//DTD SVG 20010904//EN"
 "http://www.w3.org/TR/2001/REC-SVG-20010904/DTD/svg10.dtd">
<svg version="1.0" xmlns="http://www.w3.org/2000/svg"
 width="720.000000pt" height="455.000000pt" viewBox="0 0 720.000000 455.000000"
 preserveAspectRatio="xMidYMid meet">
<metadata>
Created by potrace 1.13, written by Peter Selinger 2001-2015
</metadata>
<g transform="translate(0.000000,455.000000) scale(0.100000,-0.100000)"
fill="#000000" stroke="none">
<path d="M2180 4460 c0 -28 49 -79 86 -89 33 -9 96 7 120 31 8 7 16 28 20 46
l7 32 -117 0 c-109 0 -116 -1 -116 -20z"/>
<path d="M3600 3623 c-18 -15 -30 -20 -28 -12 1 8 -2 14 -7 14 -6 0 -8 -4 -6
-10 2 -5 5 -31 6 -57 3 -46 35 -118 76 -167 l19 -23 20 23 c11 13 34 52 51 86
37 73 34 109 -13 148 -38 32 -78 32 -118 -2z"/>
<path d="M2672 2955 c-46 -39 -50 -75 -13 -148 16 -34 42 -74 56 -89 14 -15
26 -40 26 -55 l1 -28 7 30 c4 17 3 33 -2 36 -4 3 8 29 27 58 64 95 67 155 10
200 -36 28 -76 27 -112 -4z"/>
<path d="M3420 2922 c0 -10 6 -27 14 -37 12 -16 16 -17 30 -6 20 17 21 32 1
25 -8 -4 -15 -1 -15 5 0 6 1 11 3 12 1 0 23 3 50 5 37 4 47 2 47 -10 0 -21
-21 -66 -32 -66 -10 0 -10 3 2 34 12 32 -9 36 -28 6 -7 -12 -8 -20 -2 -20 5 0
10 -4 10 -10 0 -5 -8 -10 -17 -10 -17 -1 -17 -1 0 -11 47 -27 134 0 156 48 23
51 20 53 -104 53 -104 0 -115 -2 -115 -18z"/>
<path d="M5990 2909 c0 -28 62 -89 92 -90 61 -3 109 19 127 58 23 51 20 53
-104 53 -110 0 -115 -1 -115 -21z"/>
<path d="M4640 2642 c0 -10 6 -27 14 -37 12 -16 16 -17 30 -6 20 17 21 32 1
25 -8 -4 -15 -1 -15 5 0 6 1 11 3 12 1 0 23 3 50 5 52 6 57 -2 35 -51 -12 -26
-35 -36 -24 -10 3 8 9 22 12 30 9 23 -19 18 -34 -5 -7 -12 -8 -20 -2 -20 5 0
10 -4 10 -10 0 -5 -8 -10 -17 -10 -17 -1 -17 -1 0 -11 47 -27 134 0 156 48 23
51 20 53 -104 53 -104 0 -115 -2 -115 -18z"/>
<path d="M1712 2205 c-47 -39 -50 -75 -13 -148 17 -34 40 -73 51 -86 l20 -23
19 23 c39 47 74 122 75 161 1 33 -5 45 -32 69 -41 36 -80 38 -120 4z"/>
<path d="M3312 2185 c-42 -35 -48 -73 -22 -131 11 -27 32 -62 45 -80 31 -41
31 -43 -2 -41 -24 2 -28 -2 -31 -29 -4 -37 15 -55 47 -47 19 5 22 11 18 36 -3
23 2 38 20 56 42 46 86 145 78 180 -8 39 -58 81 -95 81 -16 0 -42 -11 -58 -25z"/>
<path d="M4170 1994 c0 -13 16 -51 26 -63 5 -6 44 30 44 40 0 5 -7 6 -15 3 -8
-4 -15 -2 -15 4 0 15 31 24 45 12 7 -6 15 -6 22 1 16 16 33 2 33 -25 0 -25
-26 -54 -37 -42 -4 4 -2 11 6 15 10 6 9 10 -5 15 -9 4 -22 2 -28 -4 -7 -7 -6
-10 2 -10 7 0 12 -4 12 -10 0 -5 -10 -10 -22 -10 -21 -1 -22 -1 -5 -11 61 -35
166 15 167 79 0 22 -2 22 -115 22 -98 0 -115 -2 -115 -16z"/>
<path d="M3034 1318 c8 -40 13 -45 33 -32 23 14 29 36 9 28 -9 -3 -16 -2 -16
4 0 15 31 24 45 12 7 -6 15 -6 22 1 17 17 33 1 33 -31 0 -17 -7 -30 -16 -34
-21 -8 -33 2 -15 13 10 6 9 10 -5 15 -9 4 -22 2 -28 -4 -7 -7 -6 -10 2 -10 7
0 12 -4 12 -10 0 -5 -8 -10 -17 -10 -17 -1 -17 -1 0 -11 48 -28 148 6 161 54
12 47 12 47 -110 47 l-116 0 6 -32z"/>
<path d="M2430 932 c0 -10 7 -28 16 -40 15 -22 17 -22 35 -6 23 20 25 36 4 28
-8 -4 -15 -2 -15 4 0 15 31 24 45 12 7 -6 15 -6 22 1 16 16 33 2 33 -25 0 -25
-26 -54 -37 -42 -4 4 -2 11 6 15 10 6 9 10 -5 15 -9 4 -22 2 -28 -4 -7 -7 -6
-10 2 -10 7 0 12 -4 12 -10 0 -5 -10 -10 -22 -10 -21 -1 -22 -1 -5 -11 60 -35
166 16 167 79 0 22 -2 22 -115 22 -104 0 -115 -2 -115 -18z"/>
</g>
</svg>
